<svg width="22" height="22" viewBox="0 0 22 22" fill="none" xmlns="http://www.w3.org/2000/svg">
<path d="M21.5 6.5011C19.7367 6.40413 17.9874 6.86225 16.4982 7.81101C16.1381 7.40104 15.768 6.99107 15.3779 6.60109L15.0878 6.33111L15.2278 6.21112C15.717 5.79136 16.0656 5.23171 16.2266 4.60768C16.3876 3.98365 16.3532 3.32527 16.1281 2.72138C15.8029 2.03961 15.2866 1.4669 14.642 1.07284C13.9974 0.678773 13.2522 0.480305 12.4968 0.501542V2.5014C12.8528 2.49644 13.2036 2.5865 13.5131 2.76227C13.8225 2.93804 14.0795 3.19316 14.2575 3.50132C14.4275 3.90129 14.2575 4.34126 13.7873 4.81123L13.5572 5.02121C12.5138 4.15205 11.3683 3.41332 10.146 2.82137C7.61513 1.68146 6.31467 2.21142 5.67445 2.82137C5.47974 3.01715 5.32363 3.24782 5.21429 3.50132L5.03422 4.03128L3.59372 8.37096C4.73412 11.2108 7.49509 16.2604 13.4972 18.4402L18.4989 16.7803C18.6676 16.7176 18.8162 16.6105 18.9291 16.4704L19.1392 16.2904C20.5697 14.8505 19.6493 12.0807 17.7287 9.39089C18.8691 8.72559 20.1823 8.41572 21.5 8.50095V6.5011ZM17.7087 14.8705H17.6486C16.9584 15.2405 14.0974 14.3005 10.8563 11.0608C10.5161 10.7208 10.196 10.3908 9.90593 10.0608C9.8059 9.95085 9.71587 9.83086 9.61583 9.71087L9.08564 9.07091L8.80555 8.68094C8.6655 8.49095 8.52545 8.30097 8.40541 8.12098C8.28536 7.941 8.24535 7.861 8.16532 7.73101C8.08529 7.60102 7.94524 7.39104 7.85521 7.22105C7.76518 7.05106 7.72517 6.98107 7.66515 6.85108C7.60512 6.72109 7.49509 6.5711 7.43506 6.43111C7.37504 6.29112 7.34503 6.20112 7.29502 6.09113C7.245 5.98114 7.18498 5.82115 7.14496 5.69116C7.10495 5.56117 7.09495 5.50117 7.07494 5.40118C7.05493 5.30119 7.01492 5.1612 6.99491 5.06121C6.99011 4.98129 6.99011 4.90115 6.99491 4.82123C6.98549 4.73482 6.98549 4.64765 6.99491 4.56124L7.10495 4.25127C7.27501 4.07128 8.01527 4.02128 9.33573 4.62124C10.2176 5.04611 11.0524 5.56222 11.8266 6.16113C11.4048 6.34662 10.9553 6.46148 10.4961 6.5011V8.50095C11.5591 8.44193 12.5906 8.11887 13.4972 7.56102L13.9874 8.02099C14.4275 8.45096 14.8177 8.88093 15.1778 9.2909C14.5739 10.3187 14.3342 11.5199 14.4975 12.7006L16.4982 12.3107C16.43 11.9338 16.43 11.5477 16.4982 11.1708C17.7887 13.1406 18.0288 14.5605 17.7087 14.8705ZM2.89347 10.5008L0.66269 17.2003C0.501681 17.6922 0.459406 18.2152 0.539322 18.7265C0.619237 19.2378 0.819073 19.723 1.1225 20.1423C1.42592 20.5617 1.82431 20.9033 2.28511 21.1393C2.74591 21.3752 3.25603 21.4988 3.77378 21.5C4.11415 21.4969 4.45184 21.4395 4.77413 21.33L11.2964 19.1602C7.61526 17.281 4.66043 14.236 2.89347 10.5008Z" fill="black"/>
</svg>
