<svg width="15" height="16" viewBox="0 0 15 16" fill="none" xmlns="http://www.w3.org/2000/svg">
<path fill-rule="evenodd" clip-rule="evenodd" d="M8.02486 1.68005C8.79688 0.923237 9.83639 0.50171 10.9175 0.507085C11.9986 0.51246 13.0338 0.944303 13.7983 1.70875C14.5627 2.4732 14.9946 3.50848 14.9999 4.58956C15.0053 5.67064 14.5838 6.71016 13.827 7.48217L13.8179 7.49124L11.7651 9.54406C11.3491 9.96019 10.8485 10.282 10.2973 10.4876C9.74599 10.6932 9.15694 10.7779 8.57007 10.7359C7.9832 10.6938 7.41224 10.526 6.89592 10.2439C6.3796 9.96174 5.93 9.57186 5.57762 9.10067C5.52169 9.02936 5.48058 8.9476 5.4567 8.86018C5.43283 8.77275 5.42667 8.68144 5.43858 8.59161C5.45049 8.50177 5.48024 8.41522 5.52608 8.33704C5.57191 8.25887 5.63291 8.19064 5.70549 8.13637C5.77807 8.0821 5.86076 8.04289 5.94871 8.02103C6.03666 7.99918 6.12809 7.99512 6.21763 8.0091C6.30717 8.02308 6.39301 8.05482 6.47011 8.10244C6.54721 8.15007 6.61401 8.21263 6.66659 8.28644C6.90225 8.60132 7.20284 8.86186 7.54801 9.0504C7.89317 9.23894 8.27483 9.35107 8.66713 9.37919C9.05942 9.40731 9.45317 9.35076 9.8217 9.21338C10.1902 9.07599 10.5249 8.86099 10.8031 8.58293L12.8523 6.53374C13.3414 6.01432 13.609 5.32478 13.5983 4.61137C13.5875 3.89796 13.2993 3.21679 12.7947 2.71233C12.2901 2.20788 11.6089 1.91981 10.8955 1.90924C10.1821 1.89866 9.4926 2.1664 8.9733 2.65568L7.8 3.82264C7.67206 3.94985 7.49883 4.02103 7.31842 4.02052C7.138 4.02001 6.96518 3.94785 6.83796 3.81992C6.71075 3.69198 6.63957 3.51875 6.64008 3.33834C6.64059 3.15792 6.71275 2.98509 6.84068 2.85788L8.02486 1.68005ZM4.6854 5.53C5.51633 5.22013 6.42528 5.18782 7.27611 5.43792C8.12693 5.68802 8.87383 6.20706 9.4049 6.91728C9.50797 7.06197 9.55033 7.24124 9.52293 7.41676C9.49552 7.59228 9.40052 7.7501 9.25825 7.85648C9.11598 7.96286 8.93773 8.00934 8.76163 7.98599C8.58552 7.96264 8.42555 7.8713 8.31592 7.73152C8.08045 7.41638 7.77993 7.1556 7.43475 6.96689C7.08958 6.77817 6.70784 6.66594 6.31545 6.63781C5.92307 6.60969 5.52922 6.66633 5.16066 6.80388C4.7921 6.94144 4.45746 7.15669 4.17945 7.43502L2.13025 9.48422C1.62874 10.0011 1.35066 10.6945 1.35606 11.4147C1.36146 12.1349 1.6499 12.8241 2.15911 13.3334C2.66832 13.8427 3.35742 14.1314 4.07761 14.1369C4.79781 14.1425 5.49129 13.8646 6.00831 13.3632L7.17436 12.1971C7.30256 12.0732 7.4743 12.0046 7.65261 12.006C7.83092 12.0075 8.00151 12.0789 8.12766 12.205C8.25381 12.331 8.32541 12.5015 8.32704 12.6798C8.32867 12.8581 8.26021 13.0299 8.13639 13.1583L6.95765 14.337C6.18422 15.0862 5.14726 15.5014 4.07048 15.4928C2.9937 15.4843 1.96343 15.0528 1.20195 14.2915C0.440464 13.5301 0.00881771 12.4999 0.000133601 11.4231C-0.00855051 10.3464 0.406424 9.30933 1.15553 8.53578L1.16459 8.52672L3.21742 6.4739C3.63329 6.05729 4.13439 5.7356 4.68631 5.5309" fill="#A1A1A1"/>
</svg>
