<svg width="20" height="23" viewBox="0 0 20 23" fill="none" xmlns="http://www.w3.org/2000/svg">
<path d="M10 11.5C8.625 11.5 7.44792 10.9615 6.46875 9.88437C5.48958 8.80729 5 7.5125 5 6C5 4.4875 5.48958 3.19271 6.46875 2.11563C7.44792 1.03854 8.625 0.5 10 0.5C11.375 0.5 12.5521 1.03854 13.5312 2.11563C14.5104 3.19271 15 4.4875 15 6C15 7.5125 14.5104 8.80729 13.5312 9.88437C12.5521 10.9615 11.375 11.5 10 11.5ZM0 22.5V18.65C0 17.8708 0.1825 17.1549 0.5475 16.5022C0.9125 15.8496 1.39667 15.3509 2 15.0063C3.29167 14.2958 4.60417 13.7632 5.9375 13.4085C7.27083 13.0537 8.625 12.8759 10 12.875C11.375 12.8741 12.7292 13.0519 14.0625 13.4085C15.3958 13.7651 16.7083 14.2977 18 15.0063C18.6042 15.35 19.0887 15.8487 19.4537 16.5022C19.8187 17.1558 20.0008 17.8718 20 18.65V22.5H0Z" fill="black"/>
</svg>
