<svg width="13" height="13" viewBox="0 0 13 13" fill="none" xmlns="http://www.w3.org/2000/svg">
<path d="M11.9829 12.5005L7.39617 7.91379C7.02994 8.22582 6.60877 8.46729 6.13267 8.63819C5.65656 8.8091 5.17802 8.89456 4.69703 8.89456C3.52411 8.89456 2.53137 8.48853 1.71882 7.67647C0.906275 6.8644 0.5 5.87191 0.5 4.69899C0.5 3.52607 0.905786 2.53308 1.71736 1.72005C2.52893 0.907009 3.52118 0.500002 4.6941 0.499025C5.86703 0.498049 6.86025 0.904323 7.67378 1.71785C8.4873 2.53138 8.89407 3.52436 8.89407 4.69679C8.89407 5.20561 8.80397 5.69807 8.62379 6.17418C8.4436 6.65028 8.20677 7.05753 7.91329 7.39593L12.5 11.9819L11.9829 12.5005ZM4.69777 8.16136C5.6695 8.16136 6.48987 7.82687 7.15885 7.15788C7.82784 6.48889 8.16233 5.66829 8.16233 4.69606C8.16233 3.72383 7.82784 2.90347 7.15885 2.23497C6.48987 1.56647 5.6695 1.23198 4.69777 1.23149C3.72603 1.231 2.90542 1.5655 2.23595 2.23497C1.56647 2.90445 1.23198 3.72481 1.23247 4.69606C1.23295 5.66731 1.56745 6.48767 2.23595 7.15715C2.90444 7.82662 3.72481 8.16111 4.69703 8.16063" fill="black"/>
</svg>
